<svg width="40" height="40" viewBox="0 0 40 40" fill="none" xmlns="http://www.w3.org/2000/svg">
<path d="M8.53 3.614L10.824 6.892C8.03637 8.84354 5.94352 11.633 4.84948 14.8552C3.75545 18.0774 3.7172 21.5645 4.74031 24.8099C5.76342 28.0553 7.79458 30.89 10.5387 32.9022C13.2829 34.9144 16.5972 35.9993 20 35.9993C23.4029 35.9993 26.7171 34.9144 29.4613 32.9022C32.2054 30.89 34.2366 28.0553 35.2597 24.8099C36.2828 21.5645 36.2446 18.0774 35.1505 14.8552C34.0565 11.633 31.9636 8.84354 29.176 6.892L31.47 3.614C34.1059 5.45685 36.2579 7.90891 37.7429 10.7617C39.228 13.6146 40.0023 16.7838 40 20C40 31.046 31.046 40 20 40C8.95401 40 5.18046e-06 31.046 5.18046e-06 20C-0.00231086 16.7838 0.771983 13.6146 2.25707 10.7617C3.74215 7.90891 5.89411 5.45685 8.53 3.614ZM18 20V0H22V20H18Z" fill="url(#paint0_linear_240_108)"/>
<defs>
<linearGradient id="paint0_linear_240_108" x1="20" y1="0" x2="20" y2="40" gradientUnits="userSpaceOnUse">
<stop stop-color="#F0C804"/>
<stop offset="1" stop-color="#EF4D23"/>
</linearGradient>
</defs>
</svg>
