<svg width="58" height="40" viewBox="0 0 58 40" fill="none" xmlns="http://www.w3.org/2000/svg">
<path d="M17.1429 20C22.6696 20 27.1429 15.5268 27.1429 10C27.1429 4.47321 22.6696 0 17.1429 0C11.6161 0 7.14286 4.47321 7.14286 10C7.14286 15.5268 11.6161 20 17.1429 20ZM24 22.8571H23.2589C21.4018 23.75 19.3393 24.2857 17.1429 24.2857C14.9464 24.2857 12.8929 23.75 11.0268 22.8571H10.2857C4.60714 22.8571 0 27.4643 0 33.1429V35.7143C0 38.0804 1.91964 40 4.28571 40H30C32.3661 40 34.2857 38.0804 34.2857 35.7143V33.1429C34.2857 27.4643 29.6786 22.8571 24 22.8571ZM42.8571 20C47.5893 20 51.4286 16.1607 51.4286 11.4286C51.4286 6.69643 47.5893 2.85714 42.8571 2.85714C38.125 2.85714 34.2857 6.69643 34.2857 11.4286C34.2857 16.1607 38.125 20 42.8571 20ZM47.1429 22.8571H46.8036C45.5625 23.2857 44.25 23.5714 42.8571 23.5714C41.4643 23.5714 40.1518 23.2857 38.9107 22.8571H38.5714C36.75 22.8571 35.0714 23.3839 33.5982 24.2321C35.7768 26.5804 37.1429 29.6964 37.1429 33.1429V36.5714C37.1429 36.7679 37.0982 36.9554 37.0893 37.1429H52.8571C55.2232 37.1429 57.1429 35.2232 57.1429 32.8571C57.1429 27.3304 52.6696 22.8571 47.1429 22.8571Z" fill="url(#paint0_linear_19_96)"/>
<defs>
<linearGradient id="paint0_linear_19_96" x1="28.5714" y1="0" x2="28.5714" y2="40" gradientUnits="userSpaceOnUse">
<stop stop-color="#F0C804"/>
<stop offset="1" stop-color="#EF4D23"/>
</linearGradient>
</defs>
</svg>
