<svg width="43" height="40" viewBox="0 0 43 40" fill="none" xmlns="http://www.w3.org/2000/svg">
<path d="M41.5827 19.6723L22.3344 0.438059C22.1958 0.299195 22.0312 0.189027 21.85 0.113859C21.6688 0.0386912 21.4745 0 21.2783 0C21.0821 0 20.8879 0.0386912 20.7066 0.113859C20.5254 0.189027 20.3608 0.299195 20.2222 0.438059L0.973975 19.6723C0.41321 20.233 0.0954437 20.9948 0.0954437 21.7892C0.0954437 23.4388 1.43661 24.7799 3.08619 24.7799H5.11429V38.5046C5.11429 39.3318 5.78253 40 6.60966 40H18.2876V29.5324H23.5214V40H35.947C36.7741 40 37.4424 39.3318 37.4424 38.5046V24.7799H39.4705C40.2649 24.7799 41.0266 24.4668 41.5873 23.9014C42.7509 22.7331 42.7509 20.8405 41.5827 19.6723Z" fill="url(#paint0_linear_19_27)"/>
<defs>
<linearGradient id="paint0_linear_19_27" x1="21.2774" y1="0" x2="21.2774" y2="40" gradientUnits="userSpaceOnUse">
<stop stop-color="#F0C804"/>
<stop offset="1" stop-color="#EF4D23"/>
</linearGradient>
</defs>
</svg>
