<svg width="45" height="40" viewBox="0 0 45 40" fill="none" xmlns="http://www.w3.org/2000/svg">
<path d="M40.0431 0H5.32092C2.63574 0 0.459442 2.16148 0.459442 4.82741V26.8963C0.459442 29.5615 2.63574 31.7244 5.32092 31.7244H10.4454V40L18.1417 31.7244H40.0431C42.7291 31.7244 44.9046 29.5615 44.9046 26.8963V4.82741C44.9039 2.16148 42.7283 0 40.0431 0ZM10.8202 18.9659C9.09352 18.9659 7.695 17.577 7.695 15.8622C7.695 14.1481 9.09352 12.7593 10.8202 12.7593C12.5468 12.7593 13.9454 14.1481 13.9454 15.8622C13.9454 17.577 12.5468 18.9659 10.8202 18.9659ZM22.6817 18.9659C20.9565 18.9659 19.5565 17.577 19.5565 15.8622C19.5565 14.1481 20.9565 12.7593 22.6817 12.7593C24.4068 12.7593 25.8069 14.1481 25.8069 15.8622C25.8069 17.577 24.4068 18.9659 22.6817 18.9659ZM34.5431 18.9659C32.8165 18.9659 31.418 17.577 31.418 15.8622C31.418 14.1481 32.8165 12.7593 34.5431 12.7593C36.2683 12.7593 37.6683 14.1481 37.6683 15.8622C37.6676 17.577 36.2683 18.9659 34.5431 18.9659Z" fill="url(#paint0_linear_19_30)"/>
<defs>
<linearGradient id="paint0_linear_19_30" x1="22.682" y1="0" x2="22.682" y2="40" gradientUnits="userSpaceOnUse">
<stop stop-color="#F0C804"/>
<stop offset="1" stop-color="#EF4D23"/>
</linearGradient>
</defs>
</svg>
