<svg width="36" height="40" viewBox="0 0 36 40" fill="none" xmlns="http://www.w3.org/2000/svg">
<path d="M34.3296 28.3039C32.8202 26.682 29.996 24.2422 29.996 16.25C29.996 10.1797 25.7397 5.32031 20.0007 4.12813V2.5C20.0007 1.11953 18.8819 0 17.5023 0C16.1226 0 15.0038 1.11953 15.0038 2.5V4.12813C9.26475 5.32031 5.0085 10.1797 5.0085 16.25C5.0085 24.2422 2.18428 26.682 0.674908 28.3039C0.206158 28.8078 -0.00165497 29.4102 0.00225128 30C0.010845 31.2812 1.01631 32.5 2.51006 32.5H32.4944C33.9882 32.5 34.9944 31.2812 35.0023 30C35.0062 29.4102 34.7983 28.807 34.3296 28.3039ZM5.27803 28.75C6.93584 26.5648 8.74835 22.943 8.75694 16.2953C8.75694 16.2797 8.75225 16.2656 8.75225 16.25C8.75225 11.4172 12.6694 7.5 17.5023 7.5C22.3351 7.5 26.2523 11.4172 26.2523 16.25C26.2523 16.2656 26.2476 16.2797 26.2476 16.2953C26.2562 22.9438 28.0687 26.5656 29.7265 28.75H5.27803ZM17.5023 40C20.2616 40 22.4999 37.7617 22.4999 35H12.5046C12.5046 37.7617 14.7429 40 17.5023 40Z" fill="url(#paint0_linear_19_98)"/>
<defs>
<linearGradient id="paint0_linear_19_98" x1="17.5023" y1="0" x2="17.5023" y2="40" gradientUnits="userSpaceOnUse">
<stop stop-color="#F0C804"/>
<stop offset="1" stop-color="#EF4D23"/>
</linearGradient>
</defs>
</svg>
