<svg width="37" height="40" viewBox="0 0 37 40" fill="none" xmlns="http://www.w3.org/2000/svg">
<path d="M32.4594 40H4.45944C3.39858 40 2.38116 39.5786 1.63101 38.8284C0.880869 38.0783 0.459442 37.0609 0.459442 36V8C0.459442 6.93913 0.880869 5.92172 1.63101 5.17157C2.38116 4.42143 3.39858 4 4.45944 4H8.45944V0H12.4594V4H24.4594V0H28.4594V4H32.4594C33.5203 4 34.5377 4.42143 35.2879 5.17157C36.038 5.92172 36.4594 6.93913 36.4594 8V36C36.4594 37.0609 36.038 38.0783 35.2879 38.8284C34.5377 39.5786 33.5203 40 32.4594 40ZM4.45944 16V36H32.4594V16H4.45944ZM4.45944 8V12H32.4594V8H4.45944ZM28.4594 32H24.4594V28H28.4594V32ZM20.4594 32H16.4594V28H20.4594V32ZM12.4594 32H8.45944V28H12.4594V32ZM28.4594 24H24.4594V20H28.4594V24ZM20.4594 24H16.4594V20H20.4594V24ZM12.4594 24H8.45944V20H12.4594V24Z" fill="url(#paint0_linear_19_28)"/>
<defs>
<linearGradient id="paint0_linear_19_28" x1="18.4594" y1="0" x2="18.4594" y2="40" gradientUnits="userSpaceOnUse">
<stop stop-color="#F0C804"/>
<stop offset="1" stop-color="#EF4D23"/>
</linearGradient>
</defs>
</svg>
