<svg width="41" height="40" viewBox="0 0 41 40" fill="none" xmlns="http://www.w3.org/2000/svg">
<path fill-rule="evenodd" clip-rule="evenodd" d="M20.9046 37.9999C30.8456 37.9999 38.9046 29.9409 38.9046 20C38.9046 10.059 30.8456 2 20.9046 2C10.9636 2 2.90463 10.059 2.90463 20C2.90463 29.9409 10.9636 37.9999 20.9046 37.9999ZM20.9046 39.9999C31.9506 39.9999 40.9046 31.0459 40.9046 20C40.9046 8.95398 31.9506 0 20.9046 0C9.85862 0 0.904633 8.95398 0.904633 20C0.904633 31.0459 9.85862 39.9999 20.9046 39.9999Z" fill="url(#paint0_linear_19_31)"/>
<path d="M8.90466 31.63C8.90466 30.597 9.67666 29.724 10.7047 29.61C18.4196 28.756 23.4246 28.833 31.1226 29.629C31.507 29.6694 31.8714 29.8208 32.1711 30.0648C32.4709 30.3089 32.6931 30.6349 32.8106 31.0031C32.9281 31.3714 32.9358 31.7658 32.8328 32.1384C32.7298 32.5109 32.5206 32.8454 32.2306 33.101C23.1456 41.02 17.9536 40.911 9.54466 33.109C9.13466 32.729 8.90466 32.189 8.90466 31.631V31.63Z" fill="url(#paint1_linear_19_31)"/>
<path fill-rule="evenodd" clip-rule="evenodd" d="M31.0195 30.623C23.3826 29.833 18.4496 29.759 10.8136 30.604C10.5622 30.6332 10.3305 30.7542 10.1628 30.9437C9.99505 31.1332 9.90312 31.3779 9.90457 31.631C9.90457 31.917 10.0236 32.188 10.2246 32.376C14.3926 36.242 17.5506 37.9889 20.6376 37.9999C23.7355 38.0109 27.0635 36.278 31.5735 32.348C31.7168 32.2204 31.82 32.054 31.8704 31.869C31.9209 31.6839 31.9165 31.4882 31.8579 31.3056C31.7992 31.123 31.6887 30.9613 31.5399 30.8403C31.3911 30.7193 31.2103 30.6442 31.0195 30.624V30.623ZM10.5946 28.616C18.3906 27.753 23.4685 27.831 31.2265 28.634C31.8048 28.6943 32.353 28.922 32.8039 29.2891C33.2548 29.6562 33.5889 30.1468 33.7652 30.7008C33.9416 31.2549 33.9526 31.8483 33.7969 32.4085C33.6412 32.9687 33.3255 33.4714 32.8885 33.855C28.3135 37.8429 24.5035 40.0149 20.6316 39.9999C16.7486 39.9859 13.1066 37.7769 8.86558 33.842C8.56193 33.5591 8.31987 33.2167 8.15452 32.8361C7.98917 32.4555 7.90408 32.0449 7.90458 31.63C7.90312 30.8844 8.17678 30.1645 8.67314 29.6082C9.1695 29.0518 9.85366 28.6982 10.5946 28.615V28.616Z" fill="url(#paint2_linear_19_31)"/>
<path d="M28.9046 16C28.9046 18.1217 28.0617 20.1565 26.5614 21.6568C25.0611 23.1571 23.0263 24 20.9046 24C18.7829 24 16.748 23.1571 15.2477 21.6568C13.7475 20.1565 12.9046 18.1217 12.9046 16C12.9046 13.8783 13.7475 11.8434 15.2477 10.3431C16.748 8.84285 18.7829 8 20.9046 8C23.0263 8 25.0611 8.84285 26.5614 10.3431C28.0617 11.8434 28.9046 13.8783 28.9046 16Z" fill="url(#paint3_linear_19_31)"/>
<path fill-rule="evenodd" clip-rule="evenodd" d="M20.9046 22C22.4959 22 24.022 21.3678 25.1472 20.2426C26.2724 19.1174 26.9046 17.5913 26.9046 16C26.9046 14.4087 26.2724 12.8826 25.1472 11.7574C24.022 10.6321 22.4959 10 20.9046 10C19.3133 10 17.7872 10.6321 16.662 11.7574C15.5367 12.8826 14.9046 14.4087 14.9046 16C14.9046 17.5913 15.5367 19.1174 16.662 20.2426C17.7872 21.3678 19.3133 22 20.9046 22ZM20.9046 24C23.0263 24 25.0611 23.1571 26.5614 21.6568C28.0617 20.1565 28.9046 18.1217 28.9046 16C28.9046 13.8783 28.0617 11.8434 26.5614 10.3431C25.0611 8.84285 23.0263 8 20.9046 8C18.7829 8 16.748 8.84285 15.2477 10.3431C13.7475 11.8434 12.9046 13.8783 12.9046 16C12.9046 18.1217 13.7475 20.1565 15.2477 21.6568C16.748 23.1571 18.7829 24 20.9046 24Z" fill="url(#paint4_linear_19_31)"/>
<defs>
<linearGradient id="paint0_linear_19_31" x1="20.9046" y1="0" x2="20.9046" y2="39.9999" gradientUnits="userSpaceOnUse">
<stop stop-color="#F0C804"/>
<stop offset="1" stop-color="#EF4D23"/>
</linearGradient>
<linearGradient id="paint1_linear_19_31" x1="20.9047" y1="29.0002" x2="20.9047" y2="39.0004" gradientUnits="userSpaceOnUse">
<stop stop-color="#F0C804"/>
<stop offset="1" stop-color="#EF4D23"/>
</linearGradient>
<linearGradient id="paint2_linear_19_31" x1="20.9053" y1="27.9997" x2="20.9053" y2="40" gradientUnits="userSpaceOnUse">
<stop stop-color="#F0C804"/>
<stop offset="1" stop-color="#EF4D23"/>
</linearGradient>
<linearGradient id="paint3_linear_19_31" x1="20.9046" y1="8" x2="20.9046" y2="24" gradientUnits="userSpaceOnUse">
<stop stop-color="#F0C804"/>
<stop offset="1" stop-color="#EF4D23"/>
</linearGradient>
<linearGradient id="paint4_linear_19_31" x1="20.9046" y1="8" x2="20.9046" y2="24" gradientUnits="userSpaceOnUse">
<stop stop-color="#F0C804"/>
<stop offset="1" stop-color="#EF4D23"/>
</linearGradient>
</defs>
</svg>
