<svg width="40" height="40" viewBox="0 0 40 40" fill="none" xmlns="http://www.w3.org/2000/svg">
<g clip-path="url(#clip0_84_112)">
<path d="M22.156 3.65029e-06C22.744 3.65029e-06 23.27 0.366004 23.468 0.914004L24.88 4.828C25.386 4.954 25.82 5.08 26.188 5.212C26.59 5.356 27.108 5.574 27.748 5.872L31.036 4.132C31.3044 3.98982 31.6116 3.93849 31.9117 3.98573C32.2117 4.03297 32.4883 4.17623 32.7 4.394L35.592 7.384C35.976 7.782 36.084 8.364 35.868 8.872L34.326 12.486C34.582 12.956 34.786 13.358 34.942 13.694C35.11 14.06 35.318 14.564 35.566 15.214L39.16 16.754C39.7 16.984 40.034 17.524 39.998 18.102L39.734 22.252C39.716 22.5216 39.6192 22.78 39.4556 22.9951C39.2921 23.2102 39.069 23.3725 38.814 23.462L35.41 24.672C35.312 25.142 35.21 25.544 35.102 25.884C34.9278 26.4091 34.7289 26.9257 34.506 27.432L36.216 31.212C36.3367 31.4776 36.3692 31.7748 36.3087 32.0602C36.2483 32.3456 36.098 32.6042 35.88 32.798L32.628 35.702C32.4138 35.8924 32.1466 36.0129 31.8621 36.0472C31.5775 36.0815 31.2893 36.0281 31.036 35.894L27.684 34.118C27.1596 34.3957 26.6186 34.6408 26.064 34.852L24.6 35.4L23.3 39C23.2037 39.2636 23.0299 39.492 22.8015 39.6551C22.573 39.8182 22.3006 39.9085 22.02 39.914L18.22 40C17.9319 40.0076 17.6486 39.9257 17.409 39.7656C17.1694 39.6055 16.9853 39.375 16.882 39.106L15.35 35.052C14.8273 34.8734 14.3098 34.68 13.798 34.472C13.3794 34.2908 12.9672 34.0954 12.562 33.886L8.762 35.51C8.51162 35.6168 8.23558 35.6486 7.96749 35.6013C7.69939 35.5541 7.45081 35.43 7.252 35.244L4.44 32.606C4.23064 32.4104 4.08807 32.154 4.03243 31.873C3.9768 31.592 4.01094 31.3006 4.13 31.04L5.764 27.48C5.54669 27.0583 5.34522 26.6287 5.16 26.192C4.9438 25.6575 4.74371 25.1166 4.56 24.57L0.980003 23.48C0.689004 23.392 0.435191 23.2105 0.257982 22.9635C0.0807728 22.7165 -0.00991502 22.4178 2.51638e-06 22.114L0.140003 18.272C0.149968 18.0213 0.228276 17.7781 0.366458 17.5688C0.504641 17.3594 0.697439 17.1917 0.924003 17.084L4.68 15.28C4.854 14.642 5.006 14.146 5.14 13.784C5.32868 13.3005 5.53821 12.8254 5.768 12.36L4.14 8.92C4.01645 8.65877 3.97894 8.36508 4.03284 8.08118C4.08675 7.79727 4.2293 7.53777 4.44 7.34L7.248 4.688C7.44485 4.50235 7.69114 4.37753 7.95726 4.32856C8.22337 4.2796 8.49797 4.30857 8.748 4.412L12.544 5.98C12.964 5.7 13.344 5.474 13.688 5.292C14.098 5.074 14.646 4.846 15.336 4.6L16.656 0.918004C16.7536 0.64854 16.932 0.415766 17.1668 0.251466C17.4016 0.0871653 17.6814 -0.000652501 17.968 3.65029e-06H22.156ZM20.048 14.038C16.714 14.038 14.012 16.708 14.012 20.004C14.012 23.3 16.714 25.972 20.048 25.972C23.38 25.972 26.082 23.3 26.082 20.004C26.082 16.708 23.382 14.038 20.048 14.038Z" fill="url(#paint0_linear_84_112)"/>
</g>
<defs>
<linearGradient id="paint0_linear_84_112" x1="20" y1="0" x2="20" y2="40.0005" gradientUnits="userSpaceOnUse">
<stop stop-color="#F0C804"/>
<stop offset="1" stop-color="#EF4D23"/>
</linearGradient>
<clipPath id="clip0_84_112">
<rect width="40" height="40" fill="white"/>
</clipPath>
</defs>
</svg>
